<svg width="454" height="257"  viewBox="0 -100 454 257" fill="none" xmlns="http://www.w3.org/2000/svg">
<g filter="url(#filter0_d)">
<path d="M118.995 161.295C117.082 158.062 119.285 153.952 123.038 153.756L187.813 150.374C189.67 150.277 191.429 151.219 192.376 152.82L225.41 208.641C227.324 211.875 225.12 215.985 221.368 216.181L156.593 219.563C154.735 219.66 152.977 218.717 152.029 217.116L118.995 161.295Z" fill="#907EFF"/>
<path d="M119.239 242.625C117.146 239.502 119.076 235.274 122.787 234.853L181.571 228.191C183.422 227.981 185.239 228.827 186.283 230.385L219.445 279.855C221.538 282.979 219.609 287.206 215.897 287.627L157.113 294.289C155.262 294.499 153.445 293.653 152.401 292.095L119.239 242.625Z" fill="#907EFF"/>
<path d="M39.0446 251.656C36.5797 248.925 38.9561 244.474 43.1965 243.88L91.4175 237.13C93.1946 236.881 94.8829 237.42 95.9159 238.564L123.946 269.63C126.411 272.361 124.035 276.812 119.795 277.406L71.5735 284.156C69.7964 284.405 68.1081 283.866 67.0751 282.721L39.0446 251.656Z" fill="#907EFF"/>
<path d="M207.518 239.343C205.604 236.109 207.808 231.999 211.56 231.803L276.335 228.421C278.193 228.324 279.951 229.267 280.899 230.868L313.933 286.689C315.846 289.922 313.643 294.032 309.89 294.228L245.116 297.61C243.258 297.707 241.499 296.765 240.552 295.163L207.518 239.343Z" fill="#907EFF"/>
<path d="M23.3723 81.8395C21.4586 78.6058 23.6622 74.4958 27.4146 74.2999L92.1895 70.9179C94.0474 70.8209 95.8056 71.7635 96.7532 73.3647L129.787 129.186C131.701 132.419 129.497 136.529 125.745 136.725L60.97 140.107C59.1121 140.204 57.3539 139.262 56.4063 137.66L23.3723 81.8395Z" fill="#907EFF"/>
<path d="M31.8762 167.748C29.4113 165.017 31.7877 160.566 36.0281 159.972L84.2491 153.222C86.0262 152.973 87.7145 153.512 88.7475 154.657L116.778 185.722C119.243 188.453 116.867 192.904 112.626 193.498L64.4051 200.248C62.628 200.497 60.9397 199.958 59.9067 198.814L31.8762 167.748Z" fill="#907EFF"/>
<line x1="334.489" y1="301.003" x2="284.516" y2="221.239" stroke="#69657F" stroke-opacity="0.67" stroke-width="1.96063"/>
<line x1="238.053" y1="304.902" x2="188.135" y2="225.225" stroke="#69657F" stroke-opacity="0.67" stroke-width="1.95956"/>
<path d="M151.46 307.647L101.541 227.97" stroke="#69657F" stroke-opacity="0.67" stroke-width="1.95956"/>
<line x1="70.0493" y1="310.905" x2="19.6809" y2="230.509" stroke="#69657F" stroke-opacity="0.67" stroke-width="1.96837"/>
<line x1="285.919" y1="220.94" x2="188.035" y2="224.381" stroke="#69657F" stroke-opacity="0.67" stroke-width="2"/>
<line x1="188.919" y1="224.381" x2="91.0351" y2="227.823" stroke="#69657F" stroke-opacity="0.67" stroke-width="2"/>
<line x1="92.9185" y1="227.741" x2="-4.96487" y2="231.183" stroke="#69657F" stroke-opacity="0.67" stroke-width="2"/>
<line x1="244.051" y1="222.904" x2="193.85" y2="142.776" stroke="#69657F" stroke-opacity="0.67" stroke-width="1.96509"/>
<line x1="147.053" y1="225.902" x2="97.1346" y2="146.225" stroke="#69657F" stroke-opacity="0.67" stroke-width="1.95956"/>
<path d="M60.4597 228.647L10.5412 148.97" stroke="#69657F" stroke-opacity="0.67" stroke-width="1.95956"/>
<line x1="147.036" y1="143.913" x2="96.0496" y2="62.5309" stroke="#69657F" stroke-opacity="0.67" stroke-width="2"/>
<line x1="50.0359" y1="146.913" x2="0.117455" y2="67.2354" stroke="#69657F" stroke-opacity="0.67" stroke-width="2"/>
<line x1="194.919" y1="142.138" x2="97.0351" y2="145.58" stroke="#69657F" stroke-opacity="0.67" stroke-width="2"/>
<line x1="97.9185" y1="145.58" x2="0.0351325" y2="149.021" stroke="#69657F" stroke-opacity="0.67" stroke-width="2"/>
<line x1="1.9185" y1="148.94" x2="-95.9649" y2="152.381" stroke="#69657F" stroke-opacity="0.67" stroke-width="2"/>
<line x1="96.9185" y1="63.1377" x2="-0.964868" y2="66.5796" stroke="#69657F" stroke-opacity="0.67" stroke-width="2"/>
</g>
<defs>
<filter id="filter0_d" x="-215" y="42.9224" width="639.883" height="368.462" filterUnits="userSpaceOnUse" color-interpolation-filters="sRGB">
<feFlood flood-opacity="0" result="BackgroundImageFix"/>
<feColorMatrix in="SourceAlpha" type="matrix" values="0 0 0 0 0 0 0 0 0 0 0 0 0 0 0 0 0 0 127 0"/>
<feOffset dy="4"/>
<feGaussianBlur stdDeviation="2"/>
<feColorMatrix type="matrix" values="0 0 0 0 0 0 0 0 0 0 0 0 0 0 0 0 0 0 0.25 0"/>
<feBlend mode="normal" in2="BackgroundImageFix" result="effect1_dropShadow"/>
<feBlend mode="normal" in="SourceGraphic" in2="effect1_dropShadow" result="shape"/>
</filter>
</defs>
</svg>
