<svg width="1440" height="900" viewBox="0 0 1440 900" fill="none" xmlns="http://www.w3.org/2000/svg">
<g id="Homepage" clip-path="url(#clip0)">
<rect width="1440" height="900" fill="white"/>
<g id="Background">
<rect id="Rectangle" x="-456" y="-58.0638" width="793.441" height="888.168" transform="rotate(-13.7014 -456 -58.0638)" fill="#6D5FFF" fill-opacity="0.7"/>
<rect id="Rectangle_2" x="314" y="-246.064" width="518.221" height="888.168" transform="rotate(-13.7014 314 -246.064)" fill="#B3ABFF" fill-opacity="0.7"/>
<rect id="Rectangle_3" x="817" y="-368.064" width="793.441" height="888.168" transform="rotate(-13.7014 817 -368.064)" fill="#998FFF"/>
<rect id="Rectangle_4" x="987" y="503.936" width="793.441" height="888.168" transform="rotate(-13.7014 987 503.936)" fill="#B3ABFF" fill-opacity="0.7"/>
<rect id="Rectangle_5" x="484.846" y="624.879" width="518.779" height="888.168" transform="rotate(-13.7014 484.846 624.879)" fill="#6D5FFF" fill-opacity="0.7"/>
<rect id="Rectangle_6" x="-287" y="812.936" width="793.441" height="888.168" transform="rotate(-13.7014 -287 812.936)" fill="#B3ABFF" fill-opacity="0.7"/>
<g id="Group 2">
<rect id="Rectangle 2" x="988.941" y="502.571" width="45.6553" height="576.896" transform="rotate(-13.7 988.941 502.571)" fill="#DCD8FF"/>
<rect id="Rectangle 2.1" x="1043.27" y="532.623" width="42.0646" height="530.976" transform="rotate(-103.7 1043.27 532.623)" fill="#DCD8FF"/>
</g>
<g id="Group">
<rect id="Rectangle 2_2" x="514.033" y="570.067" width="42.4477" height="615.581" transform="rotate(166.3 514.033 570.067)" fill="#F8F7FF" fill-opacity="0.7"/>
<rect id="Rectangle 2.1_2" x="514.241" y="570" width="45.6553" height="576.648" transform="rotate(76.3 514.241 570)" fill="#F8F7FF" fill-opacity="0.7"/>
</g>
</g>
<g id="Logo">
<path id="Vector" d="M715.737 415.407C794.495 415.407 858.475 354.946 858.475 280.204C858.475 205.462 794.495 145 715.737 145C636.979 145 573 205.462 573 280.204C573 354.946 636.979 415.407 715.737 415.407Z" fill="#25292C" stroke="#6270FF" stroke-width="3.46299"/>
<path id="Vector_2" d="M661.753 212.193L659.968 349.979" stroke="url(#paint0_linear)" stroke-width="3.46299" stroke-linecap="square"/>
<path id="Vector_3" d="M766.195 212.193L764.409 349.979" stroke="url(#paint1_linear)" stroke-width="3.46299" stroke-linecap="square"/>
<path id="Vector_4" d="M660.035 277.62H764.477" stroke="#5A4ED2" stroke-width="3.46299"/>
</g>
<g id="Humane Interface Design Enterprise" filter="url(#filter0_b)">
<path d="M294.459 443.364H298.491V443.708C298.294 443.905 298.163 444.118 298.098 444.347C298.065 444.577 298.049 444.97 298.049 445.527V456.444H310.047V443.364H314.08V443.708C313.883 443.905 313.752 444.118 313.686 444.347C313.654 444.577 313.637 444.97 313.637 445.527V474H309.998V459.395H298.049V474H294.459V443.364ZM468.098 471.099H474.146V446.265H468.442V443.364H483.637V446.265H477.588V471.148H483.932V474H468.098V471.099ZM712.648 443.364H719.778C722.302 443.364 724.302 443.708 725.777 444.396C727.253 445.052 728.531 446.101 729.613 447.544C731.613 450.232 732.613 454.002 732.613 458.854C732.416 463.804 731.269 467.591 729.171 470.213C727.072 472.803 723.745 474.082 719.188 474.049H712.648V443.364ZM719.04 471.345C725.794 471.345 729.171 467.247 729.171 459.051C729.138 454.887 728.367 451.723 726.859 449.56C725.351 447.363 722.925 446.265 719.581 446.265H715.893V471.345H719.04ZM885.008 443.314H903.793V446.363H888.253V456.444H901.088V459.592H888.253V470.951H903.645V474H885.008V443.314Z" fill="#7D6DDE"/>
<path d="M327.456 474.541C325.095 474.541 323.21 473.672 321.8 471.935C320.391 470.164 319.702 467.542 319.735 464.067L319.784 451.527H323.226V464.067C323.226 466.755 323.685 468.705 324.603 469.918C325.554 471.099 326.8 471.689 328.341 471.689C330.045 471.689 331.472 471.033 332.619 469.722C333.799 468.378 334.389 466.443 334.389 463.919V451.527H337.832V470.509C337.832 471.295 337.848 471.951 337.881 472.476C337.946 472.967 338.094 473.475 338.323 474H334.93C334.701 473.508 334.553 473 334.488 472.476C334.455 471.951 334.438 471.312 334.438 470.558C333.717 471.803 332.734 472.787 331.488 473.508C330.275 474.197 328.931 474.541 327.456 474.541ZM343.044 451.527H346.29V453.74C346.814 452.92 347.486 452.264 348.306 451.773C349.126 451.248 349.978 450.986 350.863 450.986C351.847 450.986 352.699 451.297 353.42 451.92C354.174 452.543 354.65 453.33 354.846 454.281C355.273 453.297 355.945 452.51 356.863 451.92C357.78 451.297 358.797 450.986 359.911 450.986C361.387 450.986 362.485 451.527 363.206 452.609C363.96 453.658 364.304 455.035 364.239 456.739V474H360.993V458.067C360.993 456.198 360.813 454.985 360.452 454.428C360.092 453.871 359.567 453.592 358.879 453.592C358.289 453.592 357.715 453.871 357.158 454.428C356.6 454.985 356.141 455.707 355.781 456.592C355.453 457.444 355.289 458.297 355.289 459.149V474H351.994V458.362C351.994 456.526 351.814 455.297 351.453 454.674C351.125 454.018 350.486 453.691 349.535 453.691C349.044 453.691 348.535 453.92 348.011 454.379C347.519 454.805 347.109 455.428 346.782 456.248C346.454 457.034 346.29 457.952 346.29 459.001V474H343.044V451.527ZM377.762 451.035C380.975 451.035 383.417 451.871 385.089 453.543C386.794 455.215 387.646 458.051 387.646 462.05V474H383.811V470.558C382.434 473.213 379.877 474.541 376.139 474.541C373.648 474.541 371.697 473.984 370.287 472.869C368.878 471.722 368.173 470.213 368.173 468.345C368.173 466.771 368.681 465.394 369.697 464.214C370.714 463.034 372.074 462.132 373.779 461.509C375.516 460.854 377.418 460.526 379.483 460.526C381.352 460.526 383.04 460.624 384.548 460.821C384.352 458.297 383.68 456.526 382.532 455.51C381.418 454.461 379.746 453.936 377.516 453.936C376.402 453.936 375.32 454.149 374.271 454.576C373.254 455.002 372.32 455.625 371.468 456.444L369.747 454.182C371.845 452.084 374.517 451.035 377.762 451.035ZM376.484 471.836C378.91 471.836 380.827 471.131 382.237 469.722C383.647 468.279 384.417 466.214 384.548 463.526C383.073 463.296 381.483 463.181 379.778 463.181C377.287 463.181 375.32 463.591 373.877 464.411C372.435 465.23 371.714 466.476 371.714 468.148C371.714 470.607 373.304 471.836 376.484 471.836ZM393.892 451.527H397.334V455.51C398.219 454.133 399.334 453.035 400.678 452.215C402.022 451.396 403.448 450.986 404.956 450.986C406.956 450.986 408.546 451.756 409.726 453.297C410.939 454.805 411.546 457.166 411.546 460.378V474H408.103V460.477C408.103 458.247 407.726 456.625 406.972 455.608C406.218 454.592 405.218 454.084 403.973 454.084C402.956 454.084 401.924 454.379 400.875 454.969C399.858 455.559 399.006 456.395 398.318 457.477C397.662 458.526 397.334 459.723 397.334 461.067V474H393.892V451.527ZM428.315 474.492C424.971 474.492 422.299 473.475 420.299 471.443C418.332 469.41 417.348 466.542 417.348 462.837C417.348 460.378 417.807 458.264 418.725 456.494C419.643 454.69 420.873 453.33 422.414 452.412C423.987 451.461 425.741 450.986 427.675 450.986C430.396 450.986 432.593 451.887 434.265 453.691C435.97 455.494 436.822 458.149 436.822 461.657C436.822 462.018 436.789 462.558 436.724 463.28H420.742C420.873 466.034 421.643 468.115 423.053 469.525C424.463 470.935 426.249 471.64 428.413 471.64C430.773 471.64 432.708 470.804 434.216 469.132L436.183 471.049C434.281 473.344 431.659 474.492 428.315 474.492ZM433.232 460.526C433.232 458.428 432.691 456.772 431.609 455.559C430.56 454.313 429.167 453.691 427.429 453.691C425.79 453.691 424.364 454.264 423.151 455.412C421.938 456.559 421.184 458.264 420.889 460.526H433.232ZM492.243 451.527H495.685V455.51C496.57 454.133 497.685 453.035 499.029 452.215C500.373 451.396 501.799 450.986 503.307 450.986C505.307 450.986 506.897 451.756 508.077 453.297C509.29 454.805 509.897 457.166 509.897 460.378V474H506.455V460.477C506.455 458.247 506.078 456.625 505.323 455.608C504.569 454.592 503.57 454.084 502.324 454.084C501.307 454.084 500.275 454.379 499.226 454.969C498.209 455.559 497.357 456.395 496.669 457.477C496.013 458.526 495.685 459.723 495.685 461.067V474H492.243V451.527ZM535.124 471.935C532.96 473.541 530.583 474.344 527.993 474.344C525.502 474.344 523.732 473.59 522.682 472.082C521.666 470.574 521.158 468.115 521.158 464.706C521.158 464.149 521.191 463.181 521.256 461.804L521.699 454.428H516.732V451.527H521.896L522.24 445.527L526.174 444.888L526.666 444.839L526.715 445.134C526.485 445.462 526.305 445.74 526.174 445.97C526.076 446.199 526.01 446.56 525.977 447.052L525.436 451.527H532.911V454.428H525.24L524.797 462.05C524.731 463.362 524.699 464.23 524.699 464.657C524.699 467.279 524.994 469.066 525.584 470.017C526.207 470.935 527.19 471.394 528.534 471.394C529.518 471.394 530.419 471.213 531.239 470.853C532.059 470.492 532.993 469.918 534.042 469.132L535.124 471.935ZM551.253 474.492C547.909 474.492 545.238 473.475 543.238 471.443C541.271 469.41 540.287 466.542 540.287 462.837C540.287 460.378 540.746 458.264 541.664 456.494C542.582 454.69 543.812 453.33 545.352 452.412C546.926 451.461 548.68 450.986 550.614 450.986C553.335 450.986 555.532 451.887 557.204 453.691C558.908 455.494 559.761 458.149 559.761 461.657C559.761 462.018 559.728 462.558 559.662 463.28H543.68C543.812 466.034 544.582 468.115 545.992 469.525C547.401 470.935 549.188 471.64 551.352 471.64C553.712 471.64 555.646 470.804 557.154 469.132L559.122 471.049C557.22 473.344 554.597 474.492 551.253 474.492ZM556.171 460.526C556.171 458.428 555.63 456.772 554.548 455.559C553.499 454.313 552.106 453.691 550.368 453.691C548.729 453.691 547.303 454.264 546.09 455.412C544.877 456.559 544.123 458.264 543.828 460.526H556.171ZM579.038 450.986C581.431 450.986 583.414 451.805 584.988 453.445L583.414 456.198L583.218 456.641L582.873 456.444C582.775 456.084 582.66 455.805 582.529 455.608C582.398 455.379 582.119 455.133 581.693 454.871C580.841 454.313 579.874 454.035 578.792 454.035C577.612 454.035 576.497 454.33 575.448 454.92C574.399 455.51 573.546 456.412 572.891 457.625C572.235 458.805 571.907 460.296 571.907 462.1V474.049H568.317V451.527H572.006L571.907 455.658C572.53 454.182 573.481 453.035 574.759 452.215C576.071 451.396 577.497 450.986 579.038 450.986ZM595.02 454.33H590.151V451.527H595.02V449.658C595.02 446.773 595.757 444.609 597.233 443.167C598.741 441.724 600.757 441.003 603.281 441.003C604.724 441.003 606.051 441.265 607.264 441.79C608.51 442.315 609.526 443.085 610.313 444.101L608.445 446.708L608.15 447.101L607.854 446.904C607.854 446.839 607.822 446.708 607.756 446.511C607.723 446.281 607.641 446.052 607.51 445.822C607.379 445.593 607.182 445.363 606.92 445.134C606.428 444.675 605.92 444.347 605.396 444.15C604.871 443.954 604.199 443.855 603.38 443.855C601.839 443.855 600.626 444.314 599.741 445.232C598.855 446.15 598.413 447.626 598.413 449.658V451.527H605.789V454.33H598.413V474H595.02V454.33ZM623.64 451.035C626.853 451.035 629.295 451.871 630.967 453.543C632.672 455.215 633.524 458.051 633.524 462.05V474H629.688V470.558C628.311 473.213 625.754 474.541 622.017 474.541C619.525 474.541 617.575 473.984 616.165 472.869C614.755 471.722 614.051 470.213 614.051 468.345C614.051 466.771 614.559 465.394 615.575 464.214C616.591 463.034 617.952 462.132 619.657 461.509C621.394 460.854 623.296 460.526 625.361 460.526C627.23 460.526 628.918 460.624 630.426 460.821C630.229 458.297 629.557 456.526 628.41 455.51C627.295 454.461 625.623 453.936 623.394 453.936C622.279 453.936 621.197 454.149 620.148 454.576C619.132 455.002 618.198 455.625 617.345 456.444L615.624 454.182C617.722 452.084 620.394 451.035 623.64 451.035ZM622.361 471.836C624.787 471.836 626.705 471.131 628.115 469.722C629.524 468.279 630.295 466.214 630.426 463.526C628.951 463.296 627.361 463.181 625.656 463.181C623.164 463.181 621.197 463.591 619.755 464.411C618.312 465.23 617.591 466.476 617.591 468.148C617.591 470.607 619.181 471.836 622.361 471.836ZM650.244 474.541C648.08 474.541 646.146 474.033 644.441 473.016C642.736 472 641.392 470.607 640.409 468.837C639.458 467.033 638.983 465.017 638.983 462.788C638.983 460.559 639.458 458.559 640.409 456.789C641.392 455.018 642.736 453.625 644.441 452.609C646.146 451.592 648.064 451.084 650.195 451.084C651.998 451.084 653.637 451.461 655.112 452.215C656.587 452.936 657.784 453.953 658.702 455.264L656.489 457.428L656.145 457.772L655.899 457.526C655.899 457.231 655.833 456.969 655.702 456.739C655.604 456.477 655.358 456.182 654.965 455.854C654.276 455.231 653.522 454.789 652.703 454.526C651.883 454.231 650.916 454.084 649.801 454.084C648.523 454.084 647.326 454.445 646.211 455.166C645.13 455.854 644.261 456.838 643.605 458.116C642.949 459.395 642.622 460.87 642.622 462.542C642.622 464.214 642.949 465.722 643.605 467.066C644.294 468.41 645.228 469.459 646.408 470.213C647.621 470.968 648.965 471.345 650.44 471.345C652.703 471.345 654.653 470.427 656.292 468.591L658.358 471C656.161 473.361 653.457 474.541 650.244 474.541ZM674.192 474.492C670.848 474.492 668.176 473.475 666.177 471.443C664.21 469.41 663.226 466.542 663.226 462.837C663.226 460.378 663.685 458.264 664.603 456.494C665.521 454.69 666.75 453.33 668.291 452.412C669.865 451.461 671.619 450.986 673.553 450.986C676.274 450.986 678.471 451.887 680.143 453.691C681.847 455.494 682.7 458.149 682.7 461.657C682.7 462.018 682.667 462.558 682.601 463.28H666.619C666.75 466.034 667.521 468.115 668.93 469.525C670.34 470.935 672.127 471.64 674.291 471.64C676.651 471.64 678.585 470.804 680.093 469.132L682.06 471.049C680.159 473.344 677.536 474.492 674.192 474.492ZM679.11 460.526C679.11 458.428 678.569 456.772 677.487 455.559C676.438 454.313 675.045 453.691 673.307 453.691C671.668 453.691 670.242 454.264 669.029 455.412C667.816 456.559 667.062 458.264 666.767 460.526H679.11ZM747.956 474.492C744.612 474.492 741.94 473.475 739.94 471.443C737.973 469.41 736.989 466.542 736.989 462.837C736.989 460.378 737.448 458.264 738.366 456.494C739.284 454.69 740.514 453.33 742.055 452.412C743.628 451.461 745.382 450.986 747.316 450.986C750.037 450.986 752.234 451.887 753.906 453.691C755.611 455.494 756.463 458.149 756.463 461.657C756.463 462.018 756.43 462.558 756.365 463.28H740.383C740.514 466.034 741.284 468.115 742.694 469.525C744.103 470.935 745.89 471.64 748.054 471.64C750.414 471.64 752.349 470.804 753.857 469.132L755.824 471.049C753.922 473.344 751.3 474.492 747.956 474.492ZM752.873 460.526C752.873 458.428 752.332 456.772 751.25 455.559C750.201 454.313 748.808 453.691 747.07 453.691C745.431 453.691 744.005 454.264 742.792 455.412C741.579 456.559 740.825 458.264 740.53 460.526H752.873ZM771.511 474.492C767.708 474.492 764.528 473.312 761.971 470.951L763.938 467.607L764.233 467.165L764.528 467.361C764.528 467.427 764.544 467.574 764.577 467.804C764.642 468.033 764.741 468.263 764.872 468.492C765.003 468.722 765.183 468.951 765.413 469.181C766.167 469.935 767.019 470.525 767.97 470.951C768.954 471.345 770.167 471.541 771.609 471.541C773.379 471.541 774.773 471.23 775.789 470.607C776.805 469.951 777.313 469.066 777.313 467.951C777.313 467.001 776.904 466.214 776.084 465.591C775.264 464.968 773.789 464.312 771.658 463.624C766.019 462.018 763.2 459.69 763.2 456.641C763.2 454.903 763.905 453.527 765.315 452.51C766.757 451.494 768.806 450.986 771.461 450.986C773.494 450.986 775.199 451.281 776.576 451.871C777.985 452.428 779.264 453.313 780.411 454.526L778.395 456.985L778.051 457.379L777.805 457.133C777.772 456.772 777.69 456.477 777.559 456.248C777.461 456.018 777.231 455.756 776.871 455.461C776.117 454.871 775.264 454.428 774.314 454.133C773.396 453.805 772.478 453.641 771.56 453.641C770.15 453.641 768.986 453.887 768.068 454.379C767.183 454.871 766.741 455.559 766.741 456.444C766.741 457.264 767.2 458.018 768.118 458.706C769.035 459.395 770.691 460.083 773.084 460.772C775.904 461.624 777.887 462.558 779.035 463.575C780.215 464.558 780.805 465.853 780.805 467.46C780.805 469.492 780.002 471.181 778.395 472.525C776.822 473.836 774.527 474.492 771.511 474.492ZM788.673 471.148H794.426V454.379H788.968V451.527H797.967V471.148H803.229V474H788.673V471.148ZM796 446.806C795.312 446.806 794.722 446.56 794.23 446.068C793.738 445.577 793.492 444.986 793.492 444.298C793.492 443.577 793.722 442.97 794.181 442.478C794.672 441.987 795.279 441.741 796 441.741C796.689 441.741 797.279 442.003 797.77 442.528C798.295 443.019 798.557 443.61 798.557 444.298C798.557 444.986 798.295 445.577 797.77 446.068C797.279 446.56 796.689 446.806 796 446.806ZM831.702 453.838C831.406 453.805 830.98 453.789 830.423 453.789C828.849 453.789 827.538 454.133 826.489 454.822C827.046 455.936 827.325 457.166 827.325 458.51C827.325 459.985 826.997 461.329 826.341 462.542C825.718 463.722 824.801 464.657 823.588 465.345C822.407 466.034 821.03 466.378 819.457 466.378C818.211 466.378 817.047 466.148 815.965 465.689C815.375 466.411 815.08 467.099 815.08 467.755C815.08 468.542 815.572 469.115 816.555 469.476C817.572 469.804 819.375 469.968 821.965 469.968C825.145 469.968 827.309 470.459 828.456 471.443C829.636 472.394 830.226 473.803 830.226 475.672C830.226 477.606 829.439 479.213 827.866 480.491C826.292 481.803 823.833 482.458 820.489 482.458C817.277 482.458 814.752 481.966 812.916 480.983C811.113 479.999 810.212 478.557 810.212 476.655C810.212 475.475 810.54 474.459 811.195 473.607C811.851 472.754 812.687 472.082 813.703 471.59C812.621 470.869 812.08 469.869 812.08 468.591C812.08 467.279 812.753 465.902 814.097 464.46C813.277 463.739 812.654 462.87 812.228 461.854C811.802 460.837 811.589 459.723 811.589 458.51C811.589 457.067 811.9 455.756 812.523 454.576C813.179 453.363 814.097 452.412 815.277 451.723C816.49 451.035 817.883 450.691 819.457 450.691C821.85 450.691 823.768 451.461 825.21 453.002C825.997 452.281 826.8 451.756 827.62 451.428C828.472 451.068 829.407 450.887 830.423 450.887L831.259 450.937L831.702 453.838ZM819.457 463.427C820.867 463.427 822.03 462.952 822.948 462.001C823.899 461.05 824.374 459.887 824.374 458.51C824.374 457.133 823.899 455.969 822.948 455.018C822.03 454.068 820.867 453.592 819.457 453.592C818.047 453.592 816.867 454.068 815.916 455.018C814.998 455.969 814.539 457.133 814.539 458.51C814.539 459.887 814.998 461.05 815.916 462.001C816.867 462.952 818.047 463.427 819.457 463.427ZM826.981 476.213C826.981 475.426 826.833 474.803 826.538 474.344C826.276 473.918 825.735 473.607 824.915 473.41C824.096 473.18 822.866 473.066 821.227 473.066C818.867 473.066 816.982 472.853 815.572 472.426C814.785 472.951 814.228 473.492 813.9 474.049C813.605 474.606 813.457 475.344 813.457 476.262C813.457 477.377 814.08 478.245 815.326 478.868C816.572 479.491 818.309 479.803 820.539 479.803C822.702 479.803 824.309 479.475 825.358 478.819C826.44 478.196 826.981 477.328 826.981 476.213ZM836.472 451.527H839.914V455.51C840.799 454.133 841.914 453.035 843.258 452.215C844.602 451.396 846.028 450.986 847.536 450.986C849.536 450.986 851.126 451.756 852.306 453.297C853.519 454.805 854.126 457.166 854.126 460.378V474H850.683V460.477C850.683 458.247 850.306 456.625 849.552 455.608C848.798 454.592 847.798 454.084 846.553 454.084C845.536 454.084 844.504 454.379 843.454 454.969C842.438 455.559 841.586 456.395 840.897 457.477C840.242 458.526 839.914 459.723 839.914 461.067V474H836.472V451.527ZM910.235 451.527H913.677V455.51C914.562 454.133 915.677 453.035 917.021 452.215C918.365 451.396 919.791 450.986 921.299 450.986C923.299 450.986 924.889 451.756 926.069 453.297C927.282 454.805 927.889 457.166 927.889 460.378V474H924.447V460.477C924.447 458.247 924.07 456.625 923.316 455.608C922.562 454.592 921.562 454.084 920.316 454.084C919.3 454.084 918.267 454.379 917.218 454.969C916.201 455.559 915.349 456.395 914.661 457.477C914.005 458.526 913.677 459.723 913.677 461.067V474H910.235V451.527ZM953.116 471.935C950.952 473.541 948.575 474.344 945.985 474.344C943.494 474.344 941.724 473.59 940.675 472.082C939.658 470.574 939.15 468.115 939.15 464.706C939.15 464.149 939.183 463.181 939.248 461.804L939.691 454.428H934.724V451.527H939.888L940.232 445.527L944.166 444.888L944.658 444.839L944.707 445.134C944.477 445.462 944.297 445.74 944.166 445.97C944.068 446.199 944.002 446.56 943.969 447.052L943.428 451.527H950.903V454.428H943.232L942.789 462.05C942.723 463.362 942.691 464.23 942.691 464.657C942.691 467.279 942.986 469.066 943.576 470.017C944.199 470.935 945.182 471.394 946.526 471.394C947.51 471.394 948.411 471.213 949.231 470.853C950.051 470.492 950.985 469.918 952.034 469.132L953.116 471.935ZM969.245 474.492C965.902 474.492 963.23 473.475 961.23 471.443C959.263 469.41 958.279 466.542 958.279 462.837C958.279 460.378 958.738 458.264 959.656 456.494C960.574 454.69 961.804 453.33 963.344 452.412C964.918 451.461 966.672 450.986 968.606 450.986C971.327 450.986 973.524 451.887 975.196 453.691C976.9 455.494 977.753 458.149 977.753 461.657C977.753 462.018 977.72 462.558 977.655 463.28H961.672C961.804 466.034 962.574 468.115 963.984 469.525C965.393 470.935 967.18 471.64 969.344 471.64C971.704 471.64 973.639 470.804 975.147 469.132L977.114 471.049C975.212 473.344 972.589 474.492 969.245 474.492ZM974.163 460.526C974.163 458.428 973.622 456.772 972.54 455.559C971.491 454.313 970.098 453.691 968.36 453.691C966.721 453.691 965.295 454.264 964.082 455.412C962.869 456.559 962.115 458.264 961.82 460.526H974.163ZM997.03 450.986C999.423 450.986 1001.41 451.805 1002.98 453.445L1001.41 456.198L1001.21 456.641L1000.87 456.444C1000.77 456.084 1000.65 455.805 1000.52 455.608C1000.39 455.379 1000.11 455.133 999.685 454.871C998.833 454.313 997.866 454.035 996.784 454.035C995.604 454.035 994.489 454.33 993.44 454.92C992.391 455.51 991.538 456.412 990.883 457.625C990.227 458.805 989.899 460.296 989.899 462.1V474.049H986.309V451.527H989.998L989.899 455.658C990.522 454.182 991.473 453.035 992.751 452.215C994.063 451.396 995.489 450.986 997.03 450.986ZM1008 451.527H1011.59V455.953C1012.08 454.313 1012.93 453.084 1014.14 452.264C1015.36 451.445 1016.78 451.035 1018.42 451.035C1020.13 451.035 1021.68 451.478 1023.09 452.363C1024.54 453.215 1025.68 454.51 1026.53 456.248C1027.39 457.985 1027.81 460.1 1027.81 462.591C1027.81 465.116 1027.37 467.296 1026.49 469.132C1025.6 470.935 1024.42 472.295 1022.95 473.213C1021.5 474.131 1019.96 474.59 1018.32 474.59C1016.98 474.59 1015.72 474.279 1014.54 473.656C1013.36 473.033 1012.39 472.164 1011.63 471.049V482.212H1008V451.527ZM1017.73 471.443C1019.54 471.443 1021.04 470.771 1022.26 469.427C1023.5 468.05 1024.13 465.82 1024.13 462.739C1024.13 459.952 1023.58 457.821 1022.5 456.346C1021.42 454.838 1019.88 454.084 1017.88 454.084C1016.01 454.084 1014.49 454.871 1013.31 456.444C1012.16 457.985 1011.59 460.346 1011.59 463.526C1011.65 466.116 1012.22 468.083 1013.31 469.427C1014.39 470.771 1015.86 471.443 1017.73 471.443ZM1046.21 450.986C1048.6 450.986 1050.58 451.805 1052.16 453.445L1050.58 456.198L1050.39 456.641L1050.04 456.444C1049.94 456.084 1049.83 455.805 1049.7 455.608C1049.57 455.379 1049.29 455.133 1048.86 454.871C1048.01 454.313 1047.04 454.035 1045.96 454.035C1044.78 454.035 1043.66 454.33 1042.62 454.92C1041.57 455.51 1040.71 456.412 1040.06 457.625C1039.4 458.805 1039.07 460.296 1039.07 462.1V474.049H1035.48V451.527H1039.17L1039.07 455.658C1039.7 454.182 1040.65 453.035 1041.93 452.215C1043.24 451.396 1044.66 450.986 1046.21 450.986ZM1059.14 471.148H1064.89V454.379H1059.43V451.527H1068.43V471.148H1073.69V474H1059.14V471.148ZM1066.47 446.806C1065.78 446.806 1065.19 446.56 1064.7 446.068C1064.2 445.577 1063.96 444.986 1063.96 444.298C1063.96 443.577 1064.19 442.97 1064.65 442.478C1065.14 441.987 1065.74 441.741 1066.47 441.741C1067.15 441.741 1067.74 442.003 1068.24 442.528C1068.76 443.019 1069.02 443.61 1069.02 444.298C1069.02 444.986 1068.76 445.577 1068.24 446.068C1067.74 446.56 1067.15 446.806 1066.47 446.806ZM1091.15 474.492C1087.35 474.492 1084.17 473.312 1081.61 470.951L1083.58 467.607L1083.87 467.165L1084.17 467.361C1084.17 467.427 1084.19 467.574 1084.22 467.804C1084.28 468.033 1084.38 468.263 1084.51 468.492C1084.64 468.722 1084.82 468.951 1085.05 469.181C1085.81 469.935 1086.66 470.525 1087.61 470.951C1088.59 471.345 1089.81 471.541 1091.25 471.541C1093.02 471.541 1094.41 471.23 1095.43 470.607C1096.45 469.951 1096.95 469.066 1096.95 467.951C1096.95 467.001 1096.54 466.214 1095.72 465.591C1094.91 464.968 1093.43 464.312 1091.3 463.624C1085.66 462.018 1082.84 459.69 1082.84 456.641C1082.84 454.903 1083.55 453.527 1084.96 452.51C1086.4 451.494 1088.45 450.986 1091.1 450.986C1093.14 450.986 1094.84 451.281 1096.22 451.871C1097.63 452.428 1098.9 453.313 1100.05 454.526L1098.04 456.985L1097.69 457.379L1097.45 457.133C1097.41 456.772 1097.33 456.477 1097.2 456.248C1097.1 456.018 1096.87 455.756 1096.51 455.461C1095.76 454.871 1094.91 454.428 1093.95 454.133C1093.04 453.805 1092.12 453.641 1091.2 453.641C1089.79 453.641 1088.63 453.887 1087.71 454.379C1086.82 454.871 1086.38 455.559 1086.38 456.444C1086.38 457.264 1086.84 458.018 1087.76 458.706C1088.68 459.395 1090.33 460.083 1092.73 460.772C1095.54 461.624 1097.53 462.558 1098.68 463.575C1099.86 464.558 1100.45 465.853 1100.45 467.46C1100.45 469.492 1099.64 471.181 1098.04 472.525C1096.46 473.836 1094.17 474.492 1091.15 474.492ZM1116.77 474.492C1113.43 474.492 1110.76 473.475 1108.76 471.443C1106.79 469.41 1105.81 466.542 1105.81 462.837C1105.81 460.378 1106.26 458.264 1107.18 456.494C1108.1 454.69 1109.33 453.33 1110.87 452.412C1112.44 451.461 1114.2 450.986 1116.13 450.986C1118.85 450.986 1121.05 451.887 1122.72 453.691C1124.43 455.494 1125.28 458.149 1125.28 461.657C1125.28 462.018 1125.25 462.558 1125.18 463.28H1109.2C1109.33 466.034 1110.1 468.115 1111.51 469.525C1112.92 470.935 1114.71 471.64 1116.87 471.64C1119.23 471.64 1121.17 470.804 1122.67 469.132L1124.64 471.049C1122.74 473.344 1120.12 474.492 1116.77 474.492ZM1121.69 460.526C1121.69 458.428 1121.15 456.772 1120.07 455.559C1119.02 454.313 1117.62 453.691 1115.89 453.691C1114.25 453.691 1112.82 454.264 1111.61 455.412C1110.4 456.559 1109.64 458.264 1109.35 460.526H1121.69Z" fill="#69657F"/>
</g>
</g>
<defs>
<filter id="filter0_b" x="290.459" y="437.003" width="838.821" height="49.455" filterUnits="userSpaceOnUse" color-interpolation-filters="sRGB">
<feFlood flood-opacity="0" result="BackgroundImageFix"/>
<feGaussianBlur in="BackgroundImage" stdDeviation="2"/>
<feComposite in2="SourceAlpha" operator="in" result="effect1_backgroundBlur"/>
<feBlend mode="normal" in="SourceGraphic" in2="effect1_backgroundBlur" result="shape"/>
</filter>
<linearGradient id="paint0_linear" x1="658.294" y1="351.681" x2="659.998" y2="210.449" gradientUnits="userSpaceOnUse">
<stop stop-color="#5A4ED2"/>
<stop offset="0.437323" stop-color="#5A4ED2" stop-opacity="0.756906"/>
<stop offset="1" stop-color="#C0BED6"/>
</linearGradient>
<linearGradient id="paint1_linear" x1="762.736" y1="351.681" x2="764.44" y2="197.531" gradientUnits="userSpaceOnUse">
<stop stop-color="#5A4ED2"/>
<stop offset="0.451272" stop-color="#5A4ED2" stop-opacity="0.756906"/>
<stop offset="1" stop-color="#AEAAD4"/>
</linearGradient>
<clipPath id="clip0">
<rect width="1440" height="900" fill="white"/>
</clipPath>
</defs>
</svg>
