<svg width="447" height="262" preserveAspectRatio="xMaxYMin meet" viewBox="0 0 447 262" fill="none" xmlns="http://www.w3.org/2000/svg">
<g filter="url(#filter0_d)">
<line x1="107.394" y1="-38.6207" x2="157.367" y2="41.1434" stroke="#69657F" stroke-opacity="0.67" stroke-width="1.96063"/>
<line x1="203.83" y1="-42.5202" x2="253.749" y2="37.1574" stroke="#69657F" stroke-opacity="0.67" stroke-width="1.95956"/>
<path d="M290.424 -45.2654L340.342 34.4121" stroke="#69657F" stroke-opacity="0.67" stroke-width="1.95956"/>
<line x1="371.834" y1="-48.5225" x2="422.202" y2="31.8732" stroke="#69657F" stroke-opacity="0.67" stroke-width="1.96837"/>
<line x1="155.965" y1="41.4425" x2="253.848" y2="38.0007" stroke="#69657F" stroke-opacity="0.67" stroke-width="2"/>
<line x1="252.965" y1="38.0006" x2="350.848" y2="34.5588" stroke="#69657F" stroke-opacity="0.67" stroke-width="2"/>
<line x1="348.965" y1="34.6406" x2="446.848" y2="31.1988" stroke="#69657F" stroke-opacity="0.67" stroke-width="2"/>
<line x1="197.833" y1="39.4784" x2="248.033" y2="119.606" stroke="#69657F" stroke-opacity="0.67" stroke-width="1.96509"/>
<line x1="294.83" y1="36.4798" x2="344.749" y2="116.157" stroke="#69657F" stroke-opacity="0.67" stroke-width="1.95956"/>
<path d="M381.424 33.7346L431.342 113.412" stroke="#69657F" stroke-opacity="0.67" stroke-width="1.95956"/>
<line x1="294.847" y1="118.469" x2="345.834" y2="199.851" stroke="#69657F" stroke-opacity="0.67" stroke-width="2"/>
<line x1="391.847" y1="115.469" x2="441.766" y2="195.147" stroke="#69657F" stroke-opacity="0.67" stroke-width="2"/>
<line x1="246.965" y1="120.244" x2="344.848" y2="116.802" stroke="#69657F" stroke-opacity="0.67" stroke-width="2"/>
<line x1="343.965" y1="116.802" x2="441.848" y2="113.361" stroke="#69657F" stroke-opacity="0.67" stroke-width="2"/>
<line x1="439.965" y1="113.442" x2="537.848" y2="110.001" stroke="#69657F" stroke-opacity="0.67" stroke-width="2"/>
<line x1="344.965" y1="199.244" x2="442.848" y2="195.802" stroke="#69657F" stroke-opacity="0.67" stroke-width="2"/>
<line x1="441.965" y1="195.802" x2="539.848" y2="192.361" stroke="#69657F" stroke-opacity="0.67" stroke-width="2"/>
<g filter="url(#filter1_d)">
<path d="M324.346 100.769C326.275 103.993 324.091 108.114 320.34 108.328L255.582 112.018C253.724 112.124 251.962 111.189 251.006 109.593L217.707 53.9295C215.778 50.705 217.962 46.5845 221.714 46.3708L286.472 42.6807C288.329 42.5748 290.092 43.5091 291.047 45.1057L324.346 100.769Z" fill="#907EFF"/>
<path d="M323.917 101.026C325.653 103.928 323.688 107.636 320.311 107.828L255.553 111.519C253.882 111.614 252.295 110.773 251.436 109.336L218.136 53.6728C216.4 50.7707 218.366 47.0623 221.742 46.8699L286.5 43.1798C288.172 43.0846 289.758 43.9254 290.618 45.3624L323.917 101.026Z" stroke="#69657F" stroke-opacity="0.67"/>
<path d="M323.715 19.4414C325.824 22.5547 323.914 26.7917 320.205 27.23L261.453 34.1717C259.603 34.3902 257.782 33.5527 256.73 32.0004L223.334 -17.3119C221.225 -20.4252 223.135 -24.6622 226.844 -25.1005L285.597 -32.0422C287.446 -32.2607 289.267 -31.4232 290.319 -29.8708L323.715 19.4414Z" fill="#907EFF"/>
<path d="M323.304 19.7223C325.201 22.5243 323.483 26.3375 320.144 26.732L261.392 33.6737C259.728 33.8704 258.088 33.1166 257.142 31.7195L223.745 -17.5928C221.848 -20.3947 223.567 -24.208 226.905 -24.6025L285.657 -31.5442C287.322 -31.7408 288.961 -30.9871 289.907 -29.59L323.304 19.7223Z" stroke="#69657F" stroke-opacity="0.67"/>
<path d="M403.866 10.0286C406.344 12.7486 403.989 17.2107 399.751 17.8244L351.563 24.8038C349.787 25.061 348.096 24.5307 347.058 23.3908L318.88 -7.54064C316.402 -10.2606 318.757 -14.7227 322.995 -15.3365L371.183 -22.3159C372.959 -22.5731 374.65 -22.0428 375.688 -20.9029L403.866 10.0286Z" fill="#907EFF"/>
<path d="M403.435 10.3477C405.665 12.7957 403.545 16.8116 399.732 17.364L351.543 24.3434C349.945 24.5749 348.423 24.0976 347.489 23.0717L319.311 -7.85978C317.081 -10.3078 319.2 -14.3237 323.014 -14.876L371.202 -21.8554C372.801 -22.0869 374.322 -21.6096 375.257 -20.5837L403.435 10.3477Z" stroke="#69657F" stroke-opacity="0.67"/>
<path d="M235.453 23.1437C237.382 26.3683 235.198 30.4887 231.447 30.7025L166.689 34.3926C164.831 34.4984 163.069 33.5642 162.114 31.9676L128.814 -23.6956C126.885 -26.9202 129.069 -31.0406 132.821 -31.2544L197.579 -34.9445C199.436 -35.0503 201.199 -34.1161 202.154 -32.5194L235.453 23.1437Z" fill="#907EFF"/>
<path d="M235.024 23.4004C236.76 26.3025 234.795 30.0109 231.419 30.2033L166.66 33.8934C164.989 33.9887 163.402 33.1478 162.543 31.7109L129.243 -23.9523C127.507 -26.8544 129.473 -30.5628 132.849 -30.7552L197.607 -34.4453C199.279 -34.5405 200.865 -33.6997 201.725 -32.2628L235.024 23.4004Z" stroke="#69657F" stroke-opacity="0.67"/>
<path d="M420.346 179.769C422.275 182.993 420.091 187.114 416.34 187.328L351.582 191.018C349.724 191.124 347.962 190.189 347.006 188.593L313.707 132.93C311.778 129.705 313.962 125.585 317.714 125.371L382.472 121.681C384.329 121.575 386.092 122.509 387.047 124.106L420.346 179.769Z" fill="#907EFF"/>
<path d="M419.917 180.026C421.653 182.928 419.688 186.636 416.311 186.828L351.553 190.519C349.882 190.614 348.295 189.773 347.436 188.336L314.136 132.673C312.4 129.771 314.366 126.062 317.742 125.87L382.5 122.18C384.172 122.085 385.758 122.925 386.618 124.362L419.917 180.026Z" stroke="#69657F" stroke-opacity="0.67"/>
<path d="M411.434 93.9014C413.912 96.6214 411.556 101.084 407.319 101.697L359.13 108.677C357.355 108.934 355.664 108.404 354.625 107.264L326.447 76.3322C323.969 73.6122 326.325 69.1501 330.562 68.5364L378.751 61.557C380.526 61.2998 382.217 61.8301 383.256 62.97L411.434 93.9014Z" fill="#907EFF"/>
<path d="M411.003 94.2206C413.233 96.6686 411.113 100.684 407.299 101.237L359.111 108.216C357.513 108.448 355.991 107.97 355.056 106.945L326.878 76.0131C324.648 73.5651 326.768 69.5492 330.582 68.9968L378.77 62.0174C380.368 61.7859 381.89 62.2632 382.825 63.2891L411.003 94.2206Z" stroke="#69657F" stroke-opacity="0.67"/>
</g>
</g>
<defs>
<filter id="filter0_d" x="17" y="-132.05" width="639.883" height="340.432" filterUnits="userSpaceOnUse" color-interpolation-filters="sRGB">
<feFlood flood-opacity="0" result="BackgroundImageFix"/>
<feColorMatrix in="SourceAlpha" type="matrix" values="0 0 0 0 0 0 0 0 0 0 0 0 0 0 0 0 0 0 127 0"/>
<feOffset dy="4"/>
<feGaussianBlur stdDeviation="2"/>
<feColorMatrix type="matrix" values="0 0 0 0 0 0 0 0 0 0 0 0 0 0 0 0 0 0 0.25 0"/>
<feBlend mode="normal" in2="BackgroundImageFix" result="effect1_dropShadow"/>
<feBlend mode="normal" in="SourceGraphic" in2="effect1_dropShadow" result="shape"/>
</filter>
<filter id="filter1_d" x="37.9904" y="-114.076" width="388.073" height="314.102" filterUnits="userSpaceOnUse" color-interpolation-filters="sRGB">
<feFlood flood-opacity="0" result="BackgroundImageFix"/>
<feColorMatrix in="SourceAlpha" type="matrix" values="0 0 0 0 0 0 0 0 0 0 0 0 0 0 0 0 0 0 127 0"/>
<feOffset dy="4"/>
<feGaussianBlur stdDeviation="2"/>
<feColorMatrix type="matrix" values="0 0 0 0 0 0 0 0 0 0 0 0 0 0 0 0 0 0 0.25 0"/>
<feBlend mode="normal" in2="BackgroundImageFix" result="effect1_dropShadow"/>
<feBlend mode="normal" in="SourceGraphic" in2="effect1_dropShadow" result="shape"/>
</filter>
</defs>
</svg>
